HIERARCHY
ROOT Hips
{
	OFFSET 0.000000 0.000000 0.000000
	CHANNELS 6 Xposition Yposition Zposition Xrotation Yrotation Zrotation
	JOINT LeftUpLeg_virtual
	{
		OFFSET 0.000000 0.000000 0.000000
		CHANNELS 3 Xrotation Yrotation Zrotation
		JOINT LeftUpLeg
		{
			OFFSET 10.205400 -3.823500 0.155100
			CHANNELS 3 Xrotation Yrotation Zrotation
			JOINT LeftLeg
			{
				OFFSET 0.708757 -12.982077 0.567790
				CHANNELS 3 Xrotation Yrotation Zrotation
				JOINT LeftFoot
				{
					OFFSET -0.708756 -10.717838 -2.184338
					CHANNELS 3 Xrotation Yrotation Zrotation
					JOINT LeftToeBase
					{
						OFFSET 0.108149 -7.191104 7.560241
						CHANNELS 3 Xrotation Yrotation Zrotation
						JOINT LeftToe_End
						{
							OFFSET 0.070230 0.081724 4.490308
							CHANNELS 3 Xrotation Yrotation Zrotation
							End Site
							{
								OFFSET 0 0 0
							}
						}
					}
				}
			}
		}
	}
	JOINT RightUpLeg_virtual
	{
		OFFSET 0.000000 0.000000 0.000000
		CHANNELS 3 Xrotation Yrotation Zrotation
		JOINT RightUpLeg
		{
			OFFSET -10.205400 -3.823500 0.005500
			CHANNELS 3 Xrotation Yrotation Zrotation
			JOINT RightLeg
			{
				OFFSET -0.708756 -12.982134 0.610632
				CHANNELS 3 Xrotation Yrotation Zrotation
				JOINT RightFoot
				{
					OFFSET 0.708754 -10.717769 -1.945823
					CHANNELS 3 Xrotation Yrotation Zrotation
					JOINT RightToeBase
					{
						OFFSET -0.108140 -7.191069 7.372968
						CHANNELS 3 Xrotation Yrotation Zrotation
						JOINT RightToe_End
						{
							OFFSET -0.070227 0.081735 4.479403
							CHANNELS 3 Xrotation Yrotation Zrotation
							End Site
							{
								OFFSET 0 0 0
							}
						}
					}
				}
			}
		}
	}
	JOINT Spine_virtual
	{
		OFFSET 0.000000 0.000000 0.000000
		CHANNELS 3 Xrotation Yrotation Zrotation
		JOINT Spine
		{
			OFFSET 0.000000 6.876099 0.125700
			CHANNELS 3 Xrotation Yrotation Zrotation
			JOINT Spine1
			{
				OFFSET 0.000000 5.730043 0.104720
				CHANNELS 3 Xrotation Yrotation Zrotation
				JOINT Spine1_split
				{
					OFFSET 0.000000 5.730043 0.104720
					CHANNELS 3 Xrotation Yrotation Zrotation
					JOINT Spine2
					{
						OFFSET 0.000000 5.730043 0.104720
						CHANNELS 3 Xrotation Yrotation Zrotation
						JOINT Neck_virtual
						{
							OFFSET 0.000000 0.000000 0.000000
							CHANNELS 3 Xrotation Yrotation Zrotation
							JOINT Neck
							{
								OFFSET 0.000000 10.314075 0.188496
								CHANNELS 3 Xrotation Yrotation Zrotation
								JOINT Head
								{
									OFFSET 0.000000 7.643700 -2.377400
									CHANNELS 3 Xrotation Yrotation Zrotation
									JOINT HeadTop_End
									{
										OFFSET 0.000000 43.788605 -13.619600
										CHANNELS 3 Xrotation Yrotation Zrotation
										End Site
										{
											OFFSET 0 0 0
										}
									}
								}
							}
						}
						JOINT LeftShoulder_virtual
						{
							OFFSET 0.000000 0.000000 0.000000
							CHANNELS 3 Xrotation Yrotation Zrotation
							JOINT LeftShoulder
							{
								OFFSET 2.196100 4.412489 0.087492
								CHANNELS 3 Xrotation Yrotation Zrotation
								JOINT LeftShoulder_split
								{
									OFFSET 2.196100 4.412489 0.087492
									CHANNELS 3 Xrotation Yrotation Zrotation
									JOINT LeftArm
									{
										OFFSET 8.771219 -2.981674 -0.026999
										CHANNELS 3 Xrotation Yrotation Zrotation
										JOINT LeftForeArm
										{
											OFFSET 8.512804 0.000000 -0.000000
											CHANNELS 3 Xrotation Yrotation Zrotation
											JOINT LeftHand
											{
												OFFSET 18.484802 0.000000 -0.000000
												CHANNELS 3 Xrotation Yrotation Zrotation
												End Site
												{
													OFFSET 0 0 0
												}
											}
										}
									}
								}
							}
						}
						JOINT RightShoulder_virtual
						{
							OFFSET 0.000000 0.000000 0.000000
							CHANNELS 3 Xrotation Yrotation Zrotation
							JOINT RightShoulder
							{
								OFFSET -2.196100 4.412496 0.070690
								CHANNELS 3 Xrotation Yrotation Zrotation
								JOINT RightShoulder_split
								{
									OFFSET -2.196100 4.412496 0.070690
									CHANNELS 3 Xrotation Yrotation Zrotation
									JOINT RightArm
									{
										OFFSET -8.771282 -2.981682 -0.094208
										CHANNELS 3 Xrotation Yrotation Zrotation
										JOINT RightForeArm
										{
											OFFSET -8.494598 0.000000 0.000000
											CHANNELS 3 Xrotation Yrotation Zrotation
											JOINT RightHand
											{
												OFFSET -18.483803 0.000000 0.000001
												CHANNELS 3 Xrotation Yrotation Zrotation
												End Site
												{
													OFFSET 0 0 0
												}
											}
										}
									}
								}
							}
						}
					}
				}
			}
		}
	}
}
MOTION
Frames: 10
Frame Time: 0.03333333
0.713280 33.326279 -0.061520 0.000000 0.000000 0.000000 3.008926 -31.399356 1.365745 -12.202818 15.701222 14.357239 19.373727 11.345301 -4.260940 -13.239197 -4.645480 -7.685233 3.777600 -0.089766 -0.594748 0.000000 0.000000 0.000000 4.413862 -31.459926 1.468763 2.897395 1.370104 -11.885097 4.266793 11.916073 5.001582 -11.060675 -2.114287 5.586827 -3.992131 -0.294414 -0.765849 0.000000 0.000000 0.000000 4.062050 -29.237144 0.988147 8.642243 1.602062 -0.382783 0.771266 -0.747372 2.103942 0.048436 -0.649746 1.032569 0.000000 0.000000 0.000000 1.890373 -0.217916 2.233851 -4.670127 21.377809 -6.122280 -5.739860 12.470199 0.177453 0.000000 0.000000 0.000000 1.465013 -0.578208 2.663728 0.801896 -10.689896 -1.339185 2.259457 -0.439121 1.033877 -60.389097 0.426887 -37.041690 6.627971 -59.674803 9.106210 0.000000 0.000000 0.000000 0.397874 -0.588359 2.850870 4.010994 7.408051 7.191744 -2.574194 -3.209985 -1.793644 -1.520824 3.316706 65.146706 13.154838 24.691656 -4.337642 0.000000 0.000000 0.000000 
0.741030 33.284489 -0.111856 0.000000 0.000000 0.000000 2.945079 -31.882906 1.657985 -12.171126 16.095547 14.190426 19.519644 11.170963 -4.150102 -13.309282 -4.887773 -7.572809 3.531192 -0.062967 -0.607036 0.000000 0.000000 0.000000 4.509676 -31.630312 1.714760 2.597481 0.670086 -12.056345 4.194952 11.675892 5.050816 -10.724542 -2.010657 6.444041 -4.906102 -0.405765 -0.729324 0.000000 0.000000 0.000000 3.805551 -29.271288 1.031291 8.686004 1.547977 -0.539241 0.715014 -0.783719 2.145381 0.218120 -0.795135 1.250969 0.000000 0.000000 0.000000 1.904496 -0.268202 2.314578 -4.318981 21.783579 -6.144131 -5.767616 12.947939 -0.033500 0.000000 0.000000 0.000000 1.315230 -0.607954 2.686650 0.754354 -10.089690 -1.593159 2.164062 -0.674994 1.019412 -60.256188 0.699656 -36.698060 6.571485 -59.726630 8.886106 0.000000 0.000000 0.000000 0.344647 -0.642477 2.923531 3.918944 7.429490 7.489644 -2.508001 -3.602065 -1.746863 -0.829556 3.256304 64.740310 13.215453 24.573952 -4.374648 0.000000 0.000000 0.000000 
0.784599 33.227066 -0.189587 0.000000 0.000000 0.000000 3.192788 -31.797071 2.045450 -12.311232 16.222946 13.841666 19.780477 10.917313 -3.940190 -13.210076 -5.436224 -7.391471 3.310741 -0.010360 -0.589017 0.000000 0.000000 0.000000 4.610786 -31.487339 2.087738 2.287894 -0.174448 -12.379300 4.861690 11.262969 4.954522 -11.391863 -1.867682 7.320049 -4.655277 -0.486003 -0.667892 0.000000 0.000000 0.000000 3.765038 -29.073612 1.216929 8.530750 1.428837 -0.819467 0.653691 -0.799635 2.217006 0.451640 -0.966913 1.323929 0.000000 0.000000 0.000000 1.827781 -0.293992 2.443257 -4.083079 22.775696 -6.111413 -5.661970 14.523586 -0.395898 0.000000 0.000000 0.000000 1.207308 -0.614132 2.729898 0.717386 -8.959201 -1.712037 2.172420 -0.864044 0.973378 -59.907384 1.447991 -36.025396 6.120672 -60.038189 8.304872 0.000000 0.000000 0.000000 0.331640 -0.657612 3.014898 3.865255 7.546766 7.812776 -2.460454 -3.599035 -1.665506 0.131096 2.930515 64.197754 13.255459 24.595101 -4.379778 0.000000 0.000000 0.000000 
0.834816 33.170422 -0.252371 0.000000 0.000000 0.000000 3.668233 -31.162526 2.386482 -12.669729 16.056513 13.460804 20.032607 10.703647 -3.706130 -12.933629 -6.207215 -7.150555 3.190932 0.071442 -0.557035 0.000000 0.000000 0.000000 4.780873 -30.933428 2.443256 2.010186 -0.935730 -12.717282 5.896064 10.693920 4.710147 -12.949817 -1.684258 8.312647 -3.402194 -0.491569 -0.758258 0.000000 0.000000 0.000000 3.935933 -28.677707 1.419382 8.232120 1.300837 -1.115595 0.587443 -0.755602 2.283268 0.409631 -1.095880 1.219436 0.000000 0.000000 0.000000 1.649001 -0.260844 2.566241 -3.987336 24.260352 -6.079670 -5.438264 16.941157 -0.886677 0.000000 0.000000 0.000000 1.173016 -0.562817 2.758133 0.695919 -7.397570 -1.685881 2.290317 -0.881206 1.070448 -59.372936 2.640749 -34.961741 5.310348 -60.461798 7.418988 0.000000 0.000000 0.000000 0.353650 -0.593204 3.077197 3.834993 7.784940 8.101570 -2.302432 -3.165782 -1.587148 1.102382 2.493271 63.662793 13.284836 24.691445 -4.351139 0.000000 0.000000 0.000000 
0.897173 33.119637 -0.265444 0.000000 0.000000 0.000000 4.270022 -30.137441 2.586894 -13.350413 15.616710 13.128672 20.334832 10.549521 -3.475531 -12.520917 -7.086183 -6.837478 3.223317 0.175258 -0.541741 0.000000 0.000000 0.000000 5.085419 -30.060397 2.665753 1.709996 -1.515885 -12.955818 7.130949 10.119461 4.285725 -14.780101 -1.520679 9.985217 -2.555774 -0.392343 -1.153223 0.000000 0.000000 0.000000 4.290389 -28.135762 1.576365 7.819335 1.241743 -1.318247 0.520397 -0.626460 2.310648 0.329111 -1.194716 1.067212 0.000000 0.000000 0.000000 1.415373 -0.129812 2.622902 -3.990100 26.173509 -6.122856 -5.180844 19.938017 -1.488225 0.000000 0.000000 0.000000 1.214085 -0.408630 2.735800 0.690020 -5.548174 -1.550272 2.428986 -0.787786 1.256016 -58.703290 4.200460 -33.556381 4.360260 -60.913526 6.410385 0.000000 0.000000 0.000000 0.417411 -0.416267 3.062510 3.805156 8.093000 8.345025 -2.092700 -2.483270 -1.590464 1.891576 2.053646 63.219323 13.300556 24.736556 -4.294929 0.000000 0.000000 0.000000 
0.980649 33.071991 -0.209036 0.000000 0.000000 0.000000 4.745120 -28.895317 2.546926 -14.192121 15.077422 12.864801 20.800663 10.460996 -3.300795 -12.075236 -7.961062 -6.434108 3.398081 0.286124 -0.557719 0.000000 0.000000 0.000000 5.411138 -28.825150 2.663899 1.333040 -1.894503 -12.974545 8.521055 9.613230 3.643934 -16.404048 -1.480293 12.341445 -2.871890 -0.196814 -1.808989 0.000000 0.000000 0.000000 4.637634 -27.397385 1.603218 7.381587 1.299656 -1.358824 0.473995 -0.379282 2.272898 0.381870 -1.205625 0.972380 0.000000 0.000000 0.000000 1.185257 0.125929 2.581142 -4.007634 28.381635 -6.322505 -4.978069 23.213557 -2.192375 0.000000 0.000000 0.000000 1.323557 -0.129210 2.641227 0.699229 -3.562810 -1.391541 2.509187 -0.877183 1.296953 -58.019827 5.897417 -31.958926 3.494706 -61.476108 5.484136 0.000000 0.000000 0.000000 0.520495 -0.109210 2.945430 3.754709 8.420231 8.564131 -1.835806 -1.872894 -1.605570 2.400075 1.593875 62.910557 13.280341 24.480107 -4.215872 0.000000 0.000000 0.000000 
1.097924 33.018902 -0.092852 0.000000 0.000000 0.000000 4.993747 -27.514522 2.354985 -15.043078 14.650517 12.561349 21.627651 10.477939 -3.238640 -11.730320 -8.773065 -5.845138 3.611263 0.380939 -0.596706 0.000000 0.000000 0.000000 5.714549 -27.168317 2.459886 0.690965 -2.180644 -12.812712 10.486437 9.058102 2.785208 -17.748274 -1.747050 14.450807 -3.940470 0.059398 -2.369737 0.000000 0.000000 0.000000 4.865297 -26.495844 1.530419 6.985606 1.485523 -1.205141 0.452307 -0.012863 2.165459 0.514961 -1.009686 0.980813 0.000000 0.000000 0.000000 1.018620 0.493418 2.435462 -3.892734 30.783847 -6.736239 -4.869088 26.566396 -2.970553 0.000000 0.000000 0.000000 1.455915 0.267734 2.468259 0.713092 -1.536253 -1.333169 2.629818 -1.216855 1.285061 -57.393656 7.477088 -30.346356 2.907058 -62.336254 4.800432 0.000000 0.000000 0.000000 0.657546 0.308998 2.733271 3.699854 8.712084 8.778124 -1.519415 -1.421059 -1.610603 2.632607 1.070240 62.765955 13.205836 23.796213 -4.123010 0.000000 0.000000 0.000000 
1.258249 32.928009 0.069983 0.000000 0.000000 0.000000 5.095491 -26.053965 2.199803 -15.908055 14.509859 12.090143 22.950243 10.516173 -3.321055 -11.601992 -9.522476 -5.141106 3.608312 0.445604 -0.582412 0.000000 0.000000 0.000000 5.843449 -25.386792 2.217420 -0.659722 -2.531525 -12.666623 13.664515 8.263971 1.780295 -18.836572 -2.402401 15.425837 -5.410890 0.242829 -2.383757 0.000000 0.000000 0.000000 4.923313 -25.403044 1.478042 6.682001 1.776728 -0.924240 0.451306 0.433478 2.008322 0.664421 -0.830933 1.059588 0.000000 0.000000 0.000000 0.977741 0.946889 2.218870 -3.540406 33.266986 -7.418408 -4.842447 29.800358 -3.811298 0.000000 0.000000 0.000000 1.552831 0.756119 2.249265 0.724024 0.478014 -1.460585 2.769853 -1.687557 1.241029 -56.962152 8.857450 -28.747945 2.604293 -63.576473 4.380161 0.000000 0.000000 0.000000 0.790768 0.779111 2.455383 3.655777 8.893830 8.969445 -1.116849 -1.163148 -1.655117 2.628216 0.432986 62.778297 13.070020 22.772783 -4.043391 0.000000 0.000000 0.000000 
1.457415 32.801826 0.273005 0.000000 0.000000 0.000000 4.935389 -24.349903 2.182584 -16.731993 14.767777 11.390428 24.712009 10.518946 -3.584888 -11.733193 -10.243018 -4.453906 3.336287 0.472429 -0.439388 0.000000 0.000000 0.000000 5.575960 -23.567783 2.051310 -3.023387 -2.920806 -12.916771 18.840022 7.185891 0.766830 -19.461313 -3.328068 14.559084 -6.995618 0.245543 -1.557045 0.000000 0.000000 0.000000 4.775827 -23.884905 1.507875 6.571810 2.102645 -0.644102 0.470482 0.918105 1.839287 0.737245 -0.751796 1.021637 0.000000 0.000000 0.000000 1.033952 1.437802 1.979488 -2.948667 35.642393 -8.345024 -4.848921 32.684200 -4.697306 0.000000 0.000000 0.000000 1.587141 1.276055 2.030595 0.739471 2.496367 -1.800868 2.890059 -2.099909 1.203811 -56.808521 10.126239 -27.053000 2.529358 -65.181349 4.173389 0.000000 0.000000 0.000000 0.891923 1.251919 2.159216 3.636337 8.957382 9.090109 -0.672418 -1.125701 -1.695695 2.492932 -0.262447 62.918999 12.863694 21.642014 -4.015996 0.000000 0.000000 0.000000 
1.695749 32.643288 0.494347 0.000000 0.000000 0.000000 4.538987 -22.246455 2.368151 -17.636269 15.219195 10.358068 26.837601 10.381059 -3.996669 -12.024846 -10.909990 -3.904431 2.883401 0.470887 -0.165939 0.000000 0.000000 0.000000 5.081390 -21.655531 2.112853 -6.570839 -3.255842 -13.906261 26.082153 6.113316 -0.121421 -19.062021 -4.353019 12.281141 -9.167427 -0.033607 0.084882 0.000000 0.000000 0.000000 4.462005 -21.867916 1.672725 6.658814 2.386684 -0.466830 0.510373 1.380340 1.704194 0.675702 -0.758479 0.873074 0.000000 0.000000 0.000000 1.128700 1.899431 1.774486 -2.223847 37.715410 -9.391851 -4.761877 35.059528 -5.607418 0.000000 0.000000 0.000000 1.584592 1.775386 1.855641 0.765810 4.535800 -2.303746 3.046496 -2.376782 1.209578 -56.890575 11.483075 -25.153867 2.589720 -67.111854 4.087115 0.000000 0.000000 0.000000 0.982895 1.690985 1.902969 3.662221 8.913754 9.107923 -0.359864 -1.123455 -1.679765 2.391531 -0.783539 63.103694 12.622549 20.771546 -4.078194 0.000000 0.000000 0.000000 
